<!DOCTYPE svg PUBLIC "-//W3C//DTD SVG 1.1//EN" "http://www.w3.org/Graphics/SVG/1.1/DTD/svg11.dtd">
<!-- Uploaded to: SVG Repo, www.svgrepo.com, Transformed by: SVG Repo Mixer Tools -->
<svg fill="#8f9195" width="800px" height="800px" viewBox="0 0 1024 1024" xmlns="http://www.w3.org/2000/svg">
<g id="SVGRepo_bgCarrier" stroke-width="0"/>
<g id="SVGRepo_tracerCarrier" stroke-linecap="round" stroke-linejoin="round"/>
<g id="SVGRepo_iconCarrier">
<path d="M697.887 777.86c22.625 0 40.96-18.335 40.96-40.96V205.444c0-22.625-18.335-40.96-40.96-40.96H328.223c-22.625 0-40.96 18.335-40.96 40.96V736.9c0 22.625 18.335 40.96 40.96 40.96h369.664zm0 40.96H328.223c-45.246 0-81.92-36.674-81.92-81.92V205.444c0-45.246 36.674-81.92 81.92-81.92h369.664c45.246 0 81.92 36.674 81.92 81.92V736.9c0 45.246-36.674 81.92-81.92 81.92zM431.77 103.556h162.56c11.311 0 20.48-9.169 20.48-20.48s-9.169-20.48-20.48-20.48H431.77c-11.311 0-20.48 9.169-20.48 20.48s9.169 20.48 20.48 20.48z"/>
<path d="M759.86 982.66c45.245 0 81.92-36.675 81.92-81.92V122.879c0-45.245-36.675-81.92-81.92-81.92H266.241c-45.245 0-81.92 36.675-81.92 81.92V900.74c0 45.245 36.675 81.92 81.92 81.92H759.86zm0 40.96H266.241c-67.866 0-122.88-55.014-122.88-122.88V122.879c0-67.866 55.014-122.88 122.88-122.88H759.86c67.866 0 122.88 55.014 122.88 122.88V900.74c0 67.866-55.014 122.88-122.88 122.88z"/>
<path d="M533.53 900.74c0-11.309-9.171-20.48-20.48-20.48s-20.48 9.171-20.48 20.48c0 11.309 9.171 20.48 20.48 20.48s20.48-9.171 20.48-20.48zm40.96 0c0 33.931-27.509 61.44-61.44 61.44s-61.44-27.509-61.44-61.44 27.509-61.44 61.44-61.44 61.44 27.509 61.44 61.44z"/>
</g>
</svg>